<?xml version="1.0" encoding="UTF-8"?>
<svg width="83px" height="70px" viewBox="0 0 83 70" version="1.1" xmlns="http://www.w3.org/2000/svg" xmlns:xlink="http://www.w3.org/1999/xlink">
    <title>contact</title>
    <defs>
        <linearGradient x1="6.85543741%" y1="39.4912239%" x2="99.2235972%" y2="72.7863268%" id="linearGradient-1">
            <stop stop-color="#EDC372" offset="0%"></stop>
            <stop stop-color="#DD87B6" offset="46.49%"></stop>
            <stop stop-color="#6567AB" offset="100%"></stop>
        </linearGradient>
        <linearGradient x1="-250.098673%" y1="-41.0512645%" x2="1507.71771%" y2="495.844682%" id="linearGradient-2">
            <stop stop-color="#EDC372" offset="0%"></stop>
            <stop stop-color="#DD87B6" offset="46.49%"></stop>
            <stop stop-color="#6567AB" offset="100%"></stop>
        </linearGradient>
    </defs>
    <g id="Site" stroke="none" stroke-width="1" fill="none" fill-rule="evenodd">
        <g id="Contact---XL-1200" transform="translate(-559.000000, -118.000000)" fill-rule="nonzero">
            <g id="Visuel-header" transform="translate(0.000000, 60.000000)">
                <g id="DA" transform="translate(369.000000, 58.000000)">
                    <g id="contact" transform="translate(190.000000, 0.000000)">
                        <path d="M80.634939,47.4045951 C79.9486842,45.8844149 78.919302,43.4659465 78.8506765,42.4985591 C81.3211938,37.6616223 82.350576,32.4100909 81.8015722,27.2276586 C80.9094409,18.8666677 76.1742828,11.4039652 68.3509781,6.35973106 C60.7335498,1.38459603 51.1259826,-0.826575098 41.2439135,0.279010464 C36.7146318,0.762704148 32.3226011,1.86828971 28.2736978,3.66486625 C26.9698136,4.21765903 26.3521843,5.80693828 26.9011882,7.11982113 C27.450192,8.43270399 29.028578,9.05459587 30.3324622,8.50180309 C33.9009871,6.91252384 37.8126395,5.94513647 41.7929173,5.53054189 C50.5083533,4.63225362 58.8806618,6.49792925 65.5373334,10.8511724 C71.9881285,15.0662174 75.8997809,21.146938 76.6546612,27.9186495 C77.066414,32.1336945 76.2429083,36.4869376 74.1155184,40.4255862 C72.8802598,42.7749555 74.1841439,45.8153158 75.8997809,49.6157662 C76.5174102,50.9977481 77.4095414,53.1398202 77.7526688,54.3145048 C76.3115338,54.3836039 73.2233872,53.7617121 71.2332482,53.4162166 C66.9784685,52.5179283 63.2726926,51.8269373 60.8021753,53.0707211 C56.616021,55.2127931 52.0181138,56.5947751 47.1457048,57.0784687 C38.4988943,57.976757 30.0579602,56.1110814 23.4012887,51.7578382 C16.9504936,47.4736942 12.9702157,41.3929736 12.2839609,34.621262 C12.009459,31.9954963 12.2153354,29.3697306 12.9702157,26.7439649 C13.3819686,25.3619829 12.5584628,23.9109019 11.1859532,23.4963073 C10.0193201,23.1508118 8.85268692,23.7727037 8.2350576,24.8091901 C2.95089564,29.7843252 0,36.0723431 0,42.7058564 C0,47.1281987 1.30388412,51.5505409 3.84302688,55.4200904 C3.7744014,56.2492796 3.15677208,58.2531534 2.7450192,59.4969372 C1.50976056,63.2973875 0.3431274,66.9596397 2.81364468,68.9635135 C3.70577592,69.7236036 4.8037836,70 6.03904224,70 C8.02918116,70 10.431073,69.2399099 13.0388412,68.4107208 C14.8231037,67.857928 17.8426248,66.8905406 18.6661306,67.0978379 C22.9209103,68.7562162 27.5188175,69.5854054 32.2539756,69.5854054 C41.175288,69.5854054 49.5475966,66.6141442 55.6552643,61.2244146 C55.8611407,61.0171173 55.9983917,60.80982 56.2042681,60.5334236 C58.6061599,59.7733335 60.9394262,58.8750453 63.1354416,57.7003606 C64.0961983,57.285766 67.8705997,58.0458561 70.203866,58.5295498 C75.2135261,59.5660363 79.4683058,60.3952254 81.8701976,58.0458561 C84.203464,55.5582886 82.487827,51.61964 80.634939,47.4045951 Z M20.5190185,62.1227029 C18.1857522,61.2244146 15.0976056,62.191802 11.5290806,63.3664866 C10.156571,63.7810812 8.02918116,64.4720722 6.72529704,64.6793695 C6.93117348,63.642883 7.41155184,62.1227029 7.75467924,61.0862164 C8.85268692,57.5621624 9.74481816,54.7981985 8.37230856,52.7943247 C6.31354416,49.6848653 5.21553648,46.2299104 5.21553648,42.7058564 C5.21553648,40.0109916 5.90179128,37.3161268 7.06842444,34.8285593 C7.06842444,34.9667575 7.06842444,35.0358566 7.06842444,35.1740548 C7.96055568,43.5350456 12.6957138,50.9977481 20.5190185,56.0419823 C26.9011882,60.1879281 34.6558674,62.3990993 42.8222995,62.3990993 C42.890925,62.3990993 42.9595505,62.3990993 43.028176,62.3990993 C39.6655274,63.5737839 35.9597515,64.1956758 32.2539756,64.1956758 C28.1364468,64.2647749 24.2247944,63.5737839 20.5190185,62.1227029 Z" id="Shape" fill="url(#linearGradient-1)"></path>
                        <circle id="Oval" fill="url(#linearGradient-2)" cx="17.5" cy="14.5" r="2.5"></circle>
                    </g>
                </g>
            </g>
        </g>
    </g>
</svg>