<svg xmlns="http://www.w3.org/2000/svg" xmlns:xlink="http://www.w3.org/1999/xlink" version="1.1" x="0px" y="0px" viewBox="0 0 100 125" enable-background="new 0 0 100 100" xml:space="preserve"><path d="M94.8,40.8l-8.7-0.9c-0.8-2.9-2-5.7-3.4-8.3l5.5-6.8c1-1.2,0.9-3-0.2-4.1l-8.7-8.7c-1.1-1.1-2.9-1.2-4.1-0.2l-6.8,5.5  c-2.6-1.5-5.3-2.6-8.3-3.4l-0.9-8.7c-0.2-1.5-1.5-2.7-3-2.7H43.9c-1.6,0-2.9,1.2-3,2.7l-0.9,8.7c-2.9,0.8-5.7,2-8.3,3.4l-6.8-5.5  c-1.2-1-3-0.9-4.1,0.2l-8.7,8.7c-1.1,1.1-1.2,2.9-0.2,4.1l5.5,6.8c-1.5,2.6-2.6,5.3-3.4,8.3l-8.7,0.9c-1.6,0.2-2.7,1.5-2.7,3v12.3  c0,1.6,1.2,2.9,2.7,3l8.7,0.9c0.8,2.9,2,5.7,3.4,8.3l-5.5,6.8c-1,1.2-0.9,3,0.2,4.1l8.7,8.7c1.1,1.1,2.9,1.2,4.1,0.2l6.8-5.5  c2.6,1.5,5.3,2.6,8.3,3.4l0.9,8.7c0.2,1.6,1.5,2.7,3,2.7h12.3c1.6,0,2.9-1.2,3-2.7l0.9-8.7c2.9-0.8,5.7-2,8.3-3.4l6.8,5.5  c1.2,1,3,0.9,4.1-0.2l8.7-8.7c1.1-1.1,1.2-2.9,0.2-4.1l-5.5-6.8c1.5-2.6,2.6-5.3,3.4-8.3l8.7-0.9c1.6-0.2,2.7-1.5,2.7-3V43.9  C97.5,42.3,96.3,41,94.8,40.8z M50,25.9c5.9,0,10.6,4.7,10.6,10.6C60.6,42.3,55.8,47,50,47c-5.8,0-10.6-4.7-10.6-10.6  C39.4,30.6,44.1,25.9,50,25.9z M66.5,70.6h-33c-1.5,0-2.8-1.3-2.6-2.8c0.2-3.3,1-6.6,2.1-9.8c1.6-4.4,4.9-7.7,9.1-9.4  c2.3,1.5,5.1,2.4,8,2.4c3,0,5.7-0.9,8-2.4c4.1,1.6,7.5,5,9.1,9.4c1.1,3.1,1.8,6.4,2.1,9.8C69.3,69.3,68,70.6,66.5,70.6z"/><text x="0" y="115" fill="#000000" font-size="5px" font-weight="bold" font-family="'Helvetica Neue', Helvetica, Arial-Unicode, Arial, Sans-serif">Created by Adrien Coquet</text><text x="0" y="120" fill="#000000" font-size="5px" font-weight="bold" font-family="'Helvetica Neue', Helvetica, Arial-Unicode, Arial, Sans-serif">from the Noun Project</text></svg>